<svg width="20" height="20" viewBox="0 0 20 20" fill="none" xmlns="http://www.w3.org/2000/svg">
<path fill-rule="evenodd" clip-rule="evenodd" d="M9.81443 11.2207C9.25693 11.2207 8.7011 11.0365 8.2361 10.6682L4.4986 7.65485C4.22943 7.43818 4.18777 7.04401 4.4036 6.77568C4.6211 6.50818 5.01443 6.46568 5.28277 6.68151L9.01693 9.69151C9.4861 10.0632 10.1469 10.0632 10.6194 9.68818L14.3161 6.68318C14.5844 6.46401 14.9778 6.50568 15.1961 6.77401C15.4136 7.04151 15.3728 7.43485 15.1053 7.65318L11.4019 10.6632C10.9336 11.0348 10.3736 11.2207 9.81443 11.2207Z" fill="white"/>
<mask id="mask0_205_436" style="mask-type:alpha" maskUnits="userSpaceOnUse" x="0" y="1" width="19" height="17">
<path fill-rule="evenodd" clip-rule="evenodd" d="M0.833496 1.66669H18.7501V17.9167H0.833496V1.66669Z" fill="white"/>
</mask>
<g mask="url(#mask0_205_436)">
<path fill-rule="evenodd" clip-rule="evenodd" d="M5.69933 16.6667H13.8827C13.8843 16.665 13.891 16.6667 13.896 16.6667C14.8468 16.6667 15.6902 16.3267 16.3368 15.6809C17.0877 14.9334 17.5002 13.8592 17.5002 12.6567V6.93335C17.5002 4.60585 15.9785 2.91669 13.8827 2.91669H5.701C3.60516 2.91669 2.0835 4.60585 2.0835 6.93335V12.6567C2.0835 13.8592 2.49683 14.9334 3.24683 15.6809C3.8935 16.3267 4.73766 16.6667 5.68766 16.6667H5.69933ZM5.68516 17.9167C4.39933 17.9167 3.251 17.45 2.36433 16.5667C1.37683 15.5817 0.833496 14.1934 0.833496 12.6567V6.93335C0.833496 3.93085 2.926 1.66669 5.701 1.66669H13.8827C16.6577 1.66669 18.7502 3.93085 18.7502 6.93335V12.6567C18.7502 14.1934 18.2068 15.5817 17.2193 16.5667C16.3335 17.4492 15.1843 17.9167 13.896 17.9167H13.8827H5.701H5.68516Z" fill="white"/>
</g>
</svg>
